<svg id="Layer_1" data-name="Layer 1" xmlns="http://www.w3.org/2000/svg" viewBox="0 0 237 152"><defs><style>.cls-1{fill:#fff;}</style></defs><title>Artboard 1</title><path d="M23.43,199.77l-.18,3a41.74,41.74,0,0,1,6.46.8,13.81,13.81,0,0,0,4.36.5,10.71,10.71,0,0,1,2.92.34c.58.07.89.55,1,1.22.19,1.75.88,2.25,2.57,2.22a9.72,9.72,0,0,0,5.16-1.48,17.61,17.61,0,0,1,2.22-1.13,9.81,9.81,0,0,0,2.16-1.61,5.45,5.45,0,0,1,1.24-.78c1-.43,1.37-.18,1.29.86l2.61.18c0-.18,0-.36,0-.54a5.8,5.8,0,0,1,.78-3.14.69.69,0,0,0,.15-.4c0-2.58.45-5.2.09-7.79a48.19,48.19,0,0,1-.18-6.15c0-.87-.18-1.71-.21-2.58a26.42,26.42,0,0,1,.18-4.27,17.67,17.67,0,0,0-.77-6.83c-.18-.64-.82-1.05-1.33-1.48a.55.55,0,0,0-.72.05,1.28,1.28,0,0,0-.59,1.17c.36,2.14,0,4.29.22,6.45.05.56.19,1.1.26,1.66.18,1.29-.16,2.63-.07,3.95a11.76,11.76,0,0,1-.64,4.08c-.39,1.29-.16,2.63-.41,3.93-.21,1.1-.25,2.25-.38,3.35A6.87,6.87,0,0,1,50,198.86a9.81,9.81,0,0,1-4.14,3.1,4,4,0,0,1,.13-2.21,46.47,46.47,0,0,0,1.18-4.58,19.1,19.1,0,0,0,.36-7.63c-.23-2.27-.21-4.56-.38-6.84A26.59,26.59,0,0,0,46,174a9.07,9.07,0,0,1-.74-3.87,1.21,1.21,0,0,0-.13-.54,3.51,3.51,0,0,1-.39-1.93,3.06,3.06,0,0,0-.43-1.71c-.68-1.4-.5-2.87-.55-4.31s-.08-2.69-.13-4a49.5,49.5,0,0,1-.19-6c.11-.92-.14-1.86.05-2.8a6.83,6.83,0,0,1,.33-1.66,2.43,2.43,0,0,0,.07-1.23,4.52,4.52,0,0,1,.15-1.8,1.38,1.38,0,0,0,.08-.55,10.62,10.62,0,0,1,1.08-5.45,3.29,3.29,0,0,0,.28-1.09c.28-2,1.58-3.63,2.26-5.5.12-.32.23-.64.36-.95a8.39,8.39,0,0,1,1.48-2.64,21,21,0,0,0,3.45-5.64l-2.69-.88A26.93,26.93,0,0,1,49,123.74c-.7,1-1.28,2.09-2,3.14-.19.27-.61.51-.61.77a4.39,4.39,0,0,1-.92,2.14c-.44.81-.56,1.73-1.07,2.49a32.43,32.43,0,0,0-1.85,4.1,7.73,7.73,0,0,0-.83,3.81,1.21,1.21,0,0,1-.22.65,3.79,3.79,0,0,0-.51,2.38,2.58,2.58,0,0,1-.11,1.23c-.44.9.33,1.82-.13,2.69a2,2,0,0,1,0,1.75,9.24,9.24,0,0,0-.21,3.22c.18,2.77.21,5.55.21,8.34a5.34,5.34,0,0,1-.32,2.23,1.47,1.47,0,0,0,0,.9c.24,1.22.45,2.44.71,3.65.37,1.65,1.1,3.17,1.47,4.83.08.64.2,1.26.35,1.89a17.78,17.78,0,0,1,.8,4.87,75,75,0,0,0,.35,7.68,2.51,2.51,0,0,1-.06.56.88.88,0,0,1-1,.89,4.15,4.15,0,0,0-1.43.32A23.69,23.69,0,0,1,37,189.56a24.42,24.42,0,0,0-2.91.34,26.42,26.42,0,0,1-2.7.48l.3,2.9c2-.21,4-.4,6-.72a12.59,12.59,0,0,0,3.17-.76,9.65,9.65,0,0,1,2.89-.5c.74-.08.95.18.92.92a5.59,5.59,0,0,1-.32,1.65,27.72,27.72,0,0,0-.74,3.07,2.69,2.69,0,0,1-.53,1.34c-.46.56-.49,1.34-1,1.94-.76.88-1.06,1.11-2.39.7S37.21,199.85,36,200s-2.73-.21-4.13.11a8.09,8.09,0,0,1-3.69,0,20.13,20.13,0,0,0-3.37-.32C24.32,199.82,23.88,199.8,23.43,199.77Z"/><path class="cls-1" d="M43.49,151.58a49.5,49.5,0,0,0,.19,6c0,1.35.07,2.6.13,4s-.14,2.91.55,4.31a3.06,3.06,0,0,1,.43,1.71,3.51,3.51,0,0,0,.39,1.93,1.21,1.21,0,0,1,.13.54A9.07,9.07,0,0,0,46,174a26.59,26.59,0,0,1,1.09,6.73c.17,2.28.15,4.57.38,6.84a19.1,19.1,0,0,1-.36,7.63A46.47,46.47,0,0,1,46,199.75a4,4,0,0,0-.13,2.21,9.81,9.81,0,0,0,4.14-3.1,6.87,6.87,0,0,0,1.64-3.56c.13-1.1.17-2.25.38-3.35.25-1.3,0-2.64.41-3.93a11.76,11.76,0,0,0,.64-4.08c-.08-1.32.25-2.66.07-3.95-.07-.56-.21-1.1-.26-1.66-.22-2.15.14-4.31-.22-6.45a1.28,1.28,0,0,1,.59-1.17.55.55,0,0,1,.72-.05c.51.43,1.16.84,1.33,1.48a17.67,17.67,0,0,1,.77,6.83,26.42,26.42,0,0,0-.18,4.27c0,.87.21,1.71.21,2.58a48.19,48.19,0,0,0,.18,6.15c.36,2.59-.13,5.21-.09,7.79a.69.69,0,0,1-.15.4,5.8,5.8,0,0,0-.78,3.14c0,.18,0,.36,0,.54a16.26,16.26,0,0,1-.69,3.76,5.13,5.13,0,0,0-.22.76c-.08.6.11.74.7.65,1.85-.26,3.45-1.24,5.21-1.81s3.56-1.53,5.5-2a5.31,5.31,0,0,0,1.28-.61c1.35-.74,2.66-1.53,4.07-2.17a7.33,7.33,0,0,0,2.17-1.16,7.41,7.41,0,0,1,2.52-1.64,6,6,0,0,0,1.93-1.1,14.36,14.36,0,0,1,3.14-2c1.05-.55,2-1.24,3.06-1.77a25,25,0,0,0,3.22-2.21A9.32,9.32,0,0,1,89,191.33a7.13,7.13,0,0,0,1.24-.68c.65-.43,1.27-.93,1.94-1.33a1.39,1.39,0,0,0,.5-.45,13.61,13.61,0,0,1,2.22-2.69,17.56,17.56,0,0,1,2.85-2.88A7.31,7.31,0,0,0,99.27,182a72.89,72.89,0,0,0,4.78-6.54,8.1,8.1,0,0,1,.81-1.35,23,23,0,0,0,3-4.44,25.69,25.69,0,0,1,2-2.75c.4-.47,1-.81,1.4-1.29,1.45-1.59,2.93-3.13,4.52-4.58a14.69,14.69,0,0,0,2-1.86.72.72,0,0,0-.77,0,12.78,12.78,0,0,0-1.59,1.08,24.52,24.52,0,0,1-3.86,3.29A6.07,6.07,0,0,1,108,164.7a4.79,4.79,0,0,0-1.89.28c-1.62.67-3.32,1.18-4.61,2.46-1,1-2.06,1.74-3,2.72s-1.85,2-2.84,2.93a1.88,1.88,0,0,0-.5,1.1,1.56,1.56,0,0,1-1,1.18l0,0a1,1,0,0,1-1.26-.48,2.22,2.22,0,0,1,.13-2.65,35,35,0,0,1,4.11-4.62c.74-.65,1.49-1.28,2.17-2a10.66,10.66,0,0,1,4.34-2.92c1.64-.5,3.21-1.32,5-1.08a1.32,1.32,0,0,0,.86-.21,23.47,23.47,0,0,0,2.43-1.65c1-.8,1.66-1.87,2.71-2.58,1.29-.88,1.32-.93.2-2a3,3,0,0,0-2.86-1,14.82,14.82,0,0,0-3.49,1.29c-2.07,1.06-4.05,2.28-6.15,3.29-1.66.81-3.36,1.51-5,2.39a10.13,10.13,0,0,1-2.26,1,14.27,14.27,0,0,0-4.26,2.18,20.83,20.83,0,0,0-2.67,2.43A11.75,11.75,0,0,0,85,171.34c-.22.64-.43,1.39-.12,1.86.62,1,.05,1.67-.36,2.37-.51.88-1.23.88-2,.23a7.46,7.46,0,0,1-.92-1,2.37,2.37,0,0,1-.42-2.12,9.41,9.41,0,0,1,.89-2.3,9.79,9.79,0,0,1,1.77-3.14,13.38,13.38,0,0,0,1.51-1.66,12.89,12.89,0,0,1,4.55-4,1.79,1.79,0,0,0,.27-.22,25.51,25.51,0,0,1,5.06-2.91c2.43-1.27,5.08-2,7.45-3.44,1.46-.9,2.71-2.16,4.37-2.75a.47.47,0,0,0,.28-.57c0-.22-.22-.28-.42-.33a7.68,7.68,0,0,0-3.69-.07,22.65,22.65,0,0,0-4,1.44c-2.15,1.11-4.49,1.92-6.67,3.06-1,.53-2,.79-2.49,1.93-.41.85-1.43.7-1.93-.09a1.93,1.93,0,0,1,.12-2.4,8.17,8.17,0,0,1,3.11-2.15c1.81-1,3.8-1.49,5.58-2.48a27.92,27.92,0,0,1,4.95-1.89,13.57,13.57,0,0,1,2.58-.6,9.32,9.32,0,0,0,2.16.19,6.4,6.4,0,0,0,4.08-.87,5.22,5.22,0,0,0,1.69-3.38c.6-3.14.36-6.41,1-9.55a33.53,33.53,0,0,1,1.34-4.46c.68-1.88,1.33-3.77,2-5.66l.06-.15a12.79,12.79,0,0,1,1.39-2.66,1.88,1.88,0,0,0,.27-1.79,1.32,1.32,0,0,1-.06-.57,1.22,1.22,0,0,1,1.35-1.07h0a1.68,1.68,0,0,1,1.8,1.58,11,11,0,0,1-1.34,4.41,12.29,12.29,0,0,0-1.61,4.64,9.41,9.41,0,0,1-.78,3.26,2.45,2.45,0,0,0-.21.77c-.22,2-.77,4-1.1,6a11.55,11.55,0,0,0-.57,2.88c.18,2.16-.07,4.31,0,6.45a6,6,0,0,0,2.37,5c.89.68,2,1.33,2.17,2.61,0,.28.34.38.57.5.92.5,1.66,1.27,2.64,1.72.72.35.78,1.08.27,1.73a1.3,1.3,0,0,1-.48.47l2.33.17a1.63,1.63,0,0,1,1.31-.49c.76.11,1.51.15,2.26.27l.14-.84c-.65-.13-1-.68-1-1.5v-.08a1.38,1.38,0,0,1,1.41-1.37,8.13,8.13,0,0,0,1.24,0c1.33-.22,2.67-.46,4-.64l.53-.14a6.78,6.78,0,0,0,1.47-.64.54.54,0,0,0,.38-.53,4.27,4.27,0,0,1,.25-1.2.83.83,0,0,0-1.16-1,3.16,3.16,0,0,1-1.65.25,1.23,1.23,0,0,0-.77.16,6.48,6.48,0,0,1-3.3.53,4.51,4.51,0,0,0-1.93.09,7,7,0,0,1-4,.25c-1.1-.17-1.6-.8-1.44-1.76a1.86,1.86,0,0,1,.08-.33,1.58,1.58,0,0,1,2-1,5.12,5.12,0,0,0,2.29.08,9.32,9.32,0,0,1,2.35-.18h.13a8.28,8.28,0,0,0,3-.36,8.8,8.8,0,0,1,2.31-.54c.81,0,1-.3.81-1.1-.11-.45-.33-.92-.11-1.33a16.63,16.63,0,0,0,.68-2.72c.07-.41.16-.81.26-1.21.49-1.1.92-2.23,1.38-3.33a.82.82,0,0,0,0-.95c-.49.46-1,.9-1.46,1.38s-.65.75-1.24.64c-.77-.14-1.76-.11-2.13-.82a4.77,4.77,0,0,0-1.68-1.68,2.79,2.79,0,0,1-.56-.56c-.46-.61-.83-.9-1.23-.9a2,2,0,0,0-1.24.68,14,14,0,0,1-1.08,1,.62.62,0,0,1-.19.14,1.08,1.08,0,0,1-1.47-.38,1.24,1.24,0,0,0-1.29-.65H125a1.28,1.28,0,0,1-1.27-1.3,6.48,6.48,0,0,1,0-.9c.05-.9.6-1.42,1.49-1.22s1.49.17,2.24.2a8.5,8.5,0,0,0,2.31-.28,7.53,7.53,0,0,0,1.24-.43,1.84,1.84,0,0,1,2,0,1,1,0,0,0,1.14.06c.45-.22,1.08-.39,1.39,0,.51.65,1.5,1,1.45,2.07a.67.67,0,0,0,.58-.38,2.09,2.09,0,0,1,2.19-1.08c1,0,1.25.29,1.35,1.29,0,.14-.08.29.11.38a32.34,32.34,0,0,0,2.69-2.68,1.8,1.8,0,0,0,.49-1,5.67,5.67,0,0,1,.84-1.93,1.68,1.68,0,0,0,.34-1.29,8.93,8.93,0,0,0-1.53-3.8l-.36-.47v0a9.82,9.82,0,0,1-1.67-2.06h-.26a2.48,2.48,0,0,0,.36,1.16,10.87,10.87,0,0,1,.59,1.46,1.37,1.37,0,0,1-.6,1.58,1.21,1.21,0,0,1-1.46-.22,2.09,2.09,0,0,1-.69-.87c-.4-1.08-.87-2.14-1.29-3.22a3.18,3.18,0,0,0-.93-1.51,11.51,11.51,0,0,1-2.26-2.77c-.51-.75-.39-1,.25-1.65.48-.49.92-.33,1.43,0a5,5,0,0,1,1.08,1c.57.61.93,1.43,1.76,1.75.14-.16.05-.26.05-.37,0-.81-.71-1.33-1-2a8.11,8.11,0,0,0-1.93-3,8.2,8.2,0,0,0-.91-.79,3.09,3.09,0,0,1-.64-.64,13.85,13.85,0,0,0-2.88-2.77c-1.09-.83-1.89-1.92-3-2.66a2.76,2.76,0,0,1-1-.78c-.74-1.31-1.75-2.49-2-4a1.77,1.77,0,0,0-.45-.89c-.54-.58-1.1-1.26-1.59-1.75a9.71,9.71,0,0,0-1.14-1.13,1.49,1.49,0,0,0-.43-.21,5.14,5.14,0,0,1-2.66-2.13,5.09,5.09,0,0,0-1.74-1.56,4,4,0,0,1-1.29-1.18,36.92,36.92,0,0,0-2.32-3c-.46-.48-.85-1-1.28-1.54a21.8,21.8,0,0,0-4.37-4.37,10.53,10.53,0,0,0-1.46-.84c-1.43-.62-2.47-1.85-4-2.25-.8-.2-1.58-.5-2.37-.72a6.69,6.69,0,0,0-2.24-.24,7.42,7.42,0,0,0-1.33.24c-.21.06-.45.2-.44.44s.25.24.42.32a12,12,0,0,0,1.45.65,6.71,6.71,0,0,1,3.22,2,11.45,11.45,0,0,1,2.24,2.37,7.49,7.49,0,0,0,2.81,2.79,28.73,28.73,0,0,1,2.66,1.5c1,.77,2.09,1.46,3.16,2.17a4,4,0,0,1,1.21,1.18c.69,1.13,1.79,2.06,2,3.47a1,1,0,0,0,.25.37c1.19,1.28,2.37,2.57,3.58,3.86l.05,0a1.34,1.34,0,0,1,.19,1.89c-.34.59-.72.71-1.55.53a1.71,1.71,0,0,1-1.14-.64,3.9,3.9,0,0,0-1-.9,14,14,0,0,1-2.43-2.49,10.36,10.36,0,0,1-1-1.74,9.17,9.17,0,0,0-3.35-3.7,9.12,9.12,0,0,1-2.46-1.77,1.18,1.18,0,0,0-.49-.26,11.37,11.37,0,0,1-5.26-4.39,27.76,27.76,0,0,0-3-2.93,1.27,1.27,0,0,0-.61-.29c-1-.2-1.93-.56-2.91-.85a3,3,0,0,0-1.87-.19,6.34,6.34,0,0,1-4,.23.89.89,0,0,0-1.14.47,1.27,1.27,0,0,1-.95.71,1.08,1.08,0,0,0-.65.48,14.94,14.94,0,0,1-1.89,1.93,4.88,4.88,0,0,0-1,1.19c-.44.77-.44.85.48.85a3.06,3.06,0,0,1,1.29.26c1.45.74,2.92,1.41,4.32,2.22,1.08.62,2.25,1.06,3.3,1.7A27.15,27.15,0,0,0,97.38,96a1.1,1.1,0,0,1,.71,1.25,1.38,1.38,0,0,1,0,.29,1.23,1.23,0,0,1-1.42,1,7.56,7.56,0,0,1-4.06-1.2A9.81,9.81,0,0,0,90.3,96c-1.37-.39-2.58-1.22-3.86-1.72-.54-.2-.89-.74-1.47-.85a5.71,5.71,0,0,1-2.29-.91,2,2,0,0,0-2.23.14c-.48.23-1.07.85-1,1.38s.77.63,1.29.75a53.42,53.42,0,0,1,5.37,1.62c1.63.5,3.1,1.34,4.68,1.93a11.63,11.63,0,0,1,3.36,1.54c1,.83,2.15,1.59,3.22,2.43a8.69,8.69,0,0,1,1.82,2.42,1.2,1.2,0,0,1-.06,1.48,1.32,1.32,0,0,1-1.45.37c-.64-.14-1-.65-1.43-1.05a12.87,12.87,0,0,0-5.48-3.4,34.32,34.32,0,0,1-4.56-2c-1.14-.48-2.28-1-3.37-1.58a3.81,3.81,0,0,0-2.54-.76,1.05,1.05,0,0,1-.64-.17c-1-.65-2.17-.61-3.22-1a1.75,1.75,0,0,0-1.53.14.59.59,0,0,0-.35.55.45.45,0,0,0,.05.18.5.5,0,0,0,.44.19,3.61,3.61,0,0,1,1.89.69,25.18,25.18,0,0,0,2.44,1.07c1,.38,2,.84,3,1.25,3,1.18,5.71,2.82,8.58,4.22a.83.83,0,0,1,.27.2,8.19,8.19,0,0,0,2.84,1.8A4.33,4.33,0,0,1,95.5,108a1.74,1.74,0,0,1-.17,2.32c-.17.12-.34.23-.51.12-.47-.3-1.07-.3-1.55-.65a13.16,13.16,0,0,0-2.58-1.35,15.4,15.4,0,0,1-3.22-1.86,39.09,39.09,0,0,0-4-2.22,32.39,32.39,0,0,0-5.28-2.24,12,12,0,0,0-4.29-1.18,1.64,1.64,0,0,1-.91-.25,1.73,1.73,0,0,1-.58-2.38c.13-.22.37-.38.32-.75-1.6-.11-3.07.07-4,1.65A4.7,4.7,0,0,1,68,100c-.65.66-1.54,1.18-1.94,2a3.86,3.86,0,0,1-1.16,1.5,2.4,2.4,0,0,0-.7.71,18.15,18.15,0,0,1-2.21,3.4,40.1,40.1,0,0,0-2.78,5.17c-1,2-2.58,3.6-3.76,5.48a41.72,41.72,0,0,0-2.36,3.95,21,21,0,0,1-3.45,5.64,8.39,8.39,0,0,0-1.48,2.64c-.13.3-.24.63-.36.95-.68,1.87-2,3.48-2.26,5.5a3.29,3.29,0,0,1-.28,1.09,10.62,10.62,0,0,0-1.08,5.45,1.38,1.38,0,0,1-.08.55,4.52,4.52,0,0,0-.15,1.8,2.43,2.43,0,0,1-.07,1.23,6.83,6.83,0,0,0-.33,1.66C43.36,149.72,43.6,150.66,43.49,151.58Z"/><path d="M50.4,121.4l2.69.88a41.72,41.72,0,0,1,2.36-3.95c1.18-1.88,2.73-3.48,3.76-5.48A40.1,40.1,0,0,1,62,107.69a18.15,18.15,0,0,0,2.21-3.4,2.4,2.4,0,0,1,.7-.71,3.86,3.86,0,0,0,1.16-1.5c.4-.87,1.29-1.39,1.94-2a4.7,4.7,0,0,0,.72-.85c.91-1.58,2.38-1.75,4-1.65l1.9-.05a.45.45,0,0,1-.05-.18.59.59,0,0,1,.35-.55,1.75,1.75,0,0,1,1.53-.14c1.05.4,2.24.36,3.22,1a1.05,1.05,0,0,0,.64.17,3.81,3.81,0,0,1,2.54.76c1.09.58,2.23,1.09,3.37,1.58a34.32,34.32,0,0,0,4.56,2,12.87,12.87,0,0,1,5.48,3.4c.43.4.79.91,1.43,1.05a1.32,1.32,0,0,0,1.45-.37,1.2,1.2,0,0,0,.06-1.48,8.69,8.69,0,0,0-1.82-2.42c-1.07-.84-2.18-1.6-3.22-2.43a11.63,11.63,0,0,0-3.36-1.54c-1.59-.59-3.06-1.43-4.68-1.93a53.42,53.42,0,0,0-5.37-1.62c-.53-.12-1.22-.22-1.29-.75s.51-1.14,1-1.38a2,2,0,0,1,2.23-.14,5.71,5.71,0,0,0,2.29.91c.58.12.93.65,1.47.85,1.28.5,2.5,1.33,3.86,1.72a9.81,9.81,0,0,1,2.31,1.35,7.56,7.56,0,0,0,4.06,1.2,1.23,1.23,0,0,0,1.42-1,1.38,1.38,0,0,0,0-.29A1.1,1.1,0,0,0,97.38,96a27.15,27.15,0,0,1-3.77-1.72c-1.05-.64-2.22-1.08-3.3-1.7-1.4-.81-2.87-1.48-4.32-2.22a3.06,3.06,0,0,0-1.29-.26c-.92,0-.92-.08-.48-.85a4.88,4.88,0,0,1,1-1.19,14.94,14.94,0,0,0,1.89-1.93,1.08,1.08,0,0,1,.65-.48,1.27,1.27,0,0,0,.95-.71.89.89,0,0,1,1.14-.47,6.34,6.34,0,0,0,4-.23,3,3,0,0,1,1.87.19c1,.29,1.94.65,2.91.85a1.27,1.27,0,0,1,.61.29,27.76,27.76,0,0,1,3,2.93,11.37,11.37,0,0,0,5.26,4.39,1.18,1.18,0,0,1,.49.26,9.12,9.12,0,0,0,2.46,1.77,9.17,9.17,0,0,1,3.35,3.7,10.36,10.36,0,0,0,1,1.74,14,14,0,0,0,2.43,2.49,3.9,3.9,0,0,1,1,.9,1.71,1.71,0,0,0,1.14.64c.83.19,1.22.06,1.55-.53a1.34,1.34,0,0,0-.19-1.89l-.05,0c-1.21-1.29-2.39-2.58-3.58-3.86a1,1,0,0,1-.25-.37c-.25-1.41-1.34-2.33-2-3.47a4,4,0,0,0-1.21-1.18c-1.07-.71-2.14-1.41-3.16-2.17a28.73,28.73,0,0,0-2.66-1.5,7.49,7.49,0,0,1-2.81-2.79,11.45,11.45,0,0,0-2.24-2.37,6.71,6.71,0,0,0-3.22-2A12,12,0,0,1,98,81.56c-.17-.07-.4-.07-.42-.32s.23-.38.44-.44a7.42,7.42,0,0,1,1.33-.24L99,77.69l-1.24.15a1.79,1.79,0,0,0-.64.22,14.9,14.9,0,0,1-6.89,1.84A4.67,4.67,0,0,0,86.58,82a7.72,7.72,0,0,1-2,2.37,5.51,5.51,0,0,0-1.43,1.45,18,18,0,0,1-3.77,3.8,28.85,28.85,0,0,0-2.58,1.77c-1.29,1.24-3.22,1.51-4.52,2.73a.5.5,0,0,1-.21.07c-.84.21-1.67.48-2.52.64-1.32.23-2.11,1.4-3.31,1.84-.05,0-.07.13-.11.2a4.1,4.1,0,0,1-.84,1,22,22,0,0,0-2.44,3.22c-.59,1-1.21,2.07-1.87,3.06a77,77,0,0,0-5.62,8.67,45.07,45.07,0,0,1-2.67,4.57C51.84,118.72,51.15,120.08,50.4,121.4Z"/><path d="M72.39,98.27a1.73,1.73,0,0,0,.58,2.38,1.64,1.64,0,0,0,.91.25,12,12,0,0,1,4.29,1.18,32.39,32.39,0,0,1,5.28,2.24,39.09,39.09,0,0,1,4,2.22,15.4,15.4,0,0,0,3.22,1.86,13.16,13.16,0,0,1,2.58,1.35c.48.35,1.08.35,1.55.65.18.12.35,0,.51-.12A1.74,1.74,0,0,0,95.5,108a4.33,4.33,0,0,0-1.43-1.07,8.19,8.19,0,0,1-2.84-1.8.83.83,0,0,0-.27-.2c-2.87-1.4-5.62-3-8.58-4.22-1-.41-2-.87-3-1.25a25.18,25.18,0,0,1-2.44-1.07A3.61,3.61,0,0,0,75,97.66a.5.5,0,0,1-.44-.19l-1.9.05C72.76,97.89,72.52,98,72.39,98.27Z"/><path d="M81.22,172.7a2.37,2.37,0,0,0,.42,2.12,7.46,7.46,0,0,0,.92,1c.76.65,1.47.65,2-.23.41-.7,1-1.39.36-2.37-.32-.47-.11-1.22.12-1.86a11.75,11.75,0,0,1,3.16-4.56,20.83,20.83,0,0,1,2.67-2.43,14.27,14.27,0,0,1,4.26-2.18,10.13,10.13,0,0,0,2.26-1c1.62-.88,3.32-1.59,5-2.39,2.1-1,4.08-2.23,6.15-3.29a14.82,14.82,0,0,1,3.49-1.29,3,3,0,0,1,2.86,1c1.12,1.11,1.09,1.17-.2,2-1.05.71-1.73,1.79-2.71,2.58a23.47,23.47,0,0,1-2.43,1.65,1.32,1.32,0,0,1-.86.21c-1.81-.24-3.38.58-5,1.08a10.66,10.66,0,0,0-4.34,2.92c-.68.69-1.44,1.32-2.17,2A35,35,0,0,0,93,172.26a2.22,2.22,0,0,0-.13,2.65,1,1,0,0,0,1.26.48l0,0a1.56,1.56,0,0,0,1-1.18,1.88,1.88,0,0,1,.5-1.1c1-.95,1.87-1.94,2.84-2.93s2.06-1.76,3-2.72c1.29-1.28,3-1.79,4.61-2.46a4.79,4.79,0,0,1,1.89-.28,6.07,6.07,0,0,0,3.59-1.14,24.52,24.52,0,0,0,3.86-3.29,12.78,12.78,0,0,1,1.59-1.08.72.72,0,0,1,.77,0,14.69,14.69,0,0,1-2,1.86l2.81,1.22a10.6,10.6,0,0,1,2.56-1.54,3.23,3.23,0,0,1,1.63-.38,1.32,1.32,0,0,0,.76-.17,1.3,1.3,0,0,0,.48-.47c.5-.65.45-1.39-.27-1.73-1-.45-1.71-1.22-2.64-1.72-.23-.13-.53-.22-.57-.5-.18-1.28-1.28-1.93-2.17-2.61a6,6,0,0,1-2.37-5c-.12-2.14.14-4.28,0-6.45a11.55,11.55,0,0,1,.57-2.88c.34-2,.88-4,1.1-6a2.45,2.45,0,0,1,.21-.77,9.41,9.41,0,0,0,.78-3.26,12.29,12.29,0,0,1,1.61-4.64,11,11,0,0,0,1.34-4.41,1.68,1.68,0,0,0-1.8-1.58h0a1.22,1.22,0,0,0-1.35,1.07,1.32,1.32,0,0,0,.06.57,1.88,1.88,0,0,1-.27,1.79,12.79,12.79,0,0,0-1.39,2.66l-.06.15c-.64,1.89-1.29,3.78-2,5.66a33.53,33.53,0,0,0-1.34,4.46c-.65,3.14-.41,6.41-1,9.55a5.22,5.22,0,0,1-1.69,3.38,6.4,6.4,0,0,1-4.08.87,9.32,9.32,0,0,1-2.16-.19,13.57,13.57,0,0,0-2.58.6A27.92,27.92,0,0,0,97,150.65c-1.77,1-3.77,1.52-5.58,2.48a8.17,8.17,0,0,0-3.11,2.15,1.93,1.93,0,0,0-.12,2.4c.5.8,1.52.95,1.93.09.54-1.14,1.53-1.41,2.49-1.93,2.17-1.13,4.52-1.94,6.67-3.06a22.65,22.65,0,0,1,4-1.44,7.68,7.68,0,0,1,3.69.07c.2,0,.38.11.42.33a.47.47,0,0,1-.28.57c-1.66.59-2.91,1.85-4.37,2.75-2.36,1.45-5,2.17-7.45,3.44a25.51,25.51,0,0,0-5.06,2.91,1.79,1.79,0,0,1-.27.22,12.89,12.89,0,0,0-4.55,4,13.38,13.38,0,0,1-1.51,1.66,9.79,9.79,0,0,0-1.77,3.14A9.41,9.41,0,0,0,81.22,172.7Z"/><path d="M95.43,239.37a4.35,4.35,0,0,0,1.55,5.5c.21.15.43.29.64.46a.75.75,0,0,1,.22,1,7.86,7.86,0,0,1-.91,1.54l2.7,1.42c.44-.67.91-1.33,1.41-2a1,1,0,0,1,1.16-.43c.79.25,1.63.23,2.45.43a26.85,26.85,0,0,1,4.73,2c1.76.82,3.54,1.64,5.36,2.34,1.54.61,3.17,1.2,4.16,2.71a1,1,0,0,0,.41.37c1.44.6,2.53,1.74,3.92,2.44a4.08,4.08,0,0,1,1.71,1.93c.7,1.45,1.4,2.91,2,4.4a17.58,17.58,0,0,0,4,5.87,10.8,10.8,0,0,0,4.83,2.57,10.43,10.43,0,0,1,3.6,1.74A1.48,1.48,0,0,1,140,275a14.13,14.13,0,0,0-.55,2.79.5.5,0,0,1-.56.45l-.17,3A5.27,5.27,0,0,0,141,281a2.49,2.49,0,0,0,1.66-1.29,14.45,14.45,0,0,0,1-2.87,4.25,4.25,0,0,0-.28-3.22,1,1,0,0,1-.13-.43,3.24,3.24,0,0,0-2.13-2.92A11.47,11.47,0,0,0,138.3,269a4.22,4.22,0,0,1-1.11-.55,21.35,21.35,0,0,0-2.25-1.49,2.24,2.24,0,0,1-1.4-1.32,1.58,1.58,0,0,0-.56-.69c-1.6-1.2-2.47-2.94-3.51-4.56a.64.64,0,0,1-.09-.64c.24-.56.44-1.13.65-1.69a7.25,7.25,0,0,0,.86-3.44,2.43,2.43,0,0,1,.09-.78,32.21,32.21,0,0,1,2.86-8.18c.3-.57.65-1.09.93-1.68a24.23,24.23,0,0,1,1.89-3.33c.55-.86,1.38-1.48,1.93-2.32.76-1.07,1.43-2.18,2.14-3.28a23.28,23.28,0,0,1,3.23-4.37,3.56,3.56,0,0,0,.48-.76,44.52,44.52,0,0,1,3.22-5.16c.64-.88,1.55-1.55,2.12-2.49,1.56-2.63,3.74-4.79,5.49-7.27a27.37,27.37,0,0,1,3.5-4.27,4.55,4.55,0,0,0,.6-.82,35.9,35.9,0,0,0,3.22-5.16,16.84,16.84,0,0,0,1.76-4,3,3,0,0,1,.6-1.08,11.17,11.17,0,0,0,1.89-3.69,10.21,10.21,0,0,1,1.52-3.22,43.44,43.44,0,0,1,6.92-7.7,13.28,13.28,0,0,0,3.23-4.27,13.32,13.32,0,0,1,.74-1.74,7.56,7.56,0,0,0,.9-2.88,3.19,3.19,0,0,0-1.05-2.39,26.51,26.51,0,0,1-2.37-2.84,5.47,5.47,0,0,0-4.52-2.68c-1.69-.16-3.35-.48-5-.79-.86-.16-1.73-.16-2.58-.36a56.24,56.24,0,0,0-6.71-1.35,8.33,8.33,0,0,1-.88-.22,15.32,15.32,0,0,0-3.63-.76,24.86,24.86,0,0,1-5.28-1,1.27,1.27,0,0,1-.65-.57c-1-1.23-1.67-2.66-2.63-3.91a14.07,14.07,0,0,0-3.18-3.61,1.4,1.4,0,0,1-.71-1.22,5.28,5.28,0,0,1,.05-1.58,3.11,3.11,0,0,0-.64-2.85c-.22-.34-.46-.68-.69-1a2.22,2.22,0,0,1-.29-1.63c.06-.34.17-.65.22-1,.36-2.39,1.56-4.46,2.55-6.62a1.78,1.78,0,0,1,.48-.64c1.42-1.19,2.47-2.73,3.86-4a1,1,0,0,0,.35-.68,5.6,5.6,0,0,1,.69-1.9c1-2,1.48-4,.22-6.23-.36-.67-.76-1.33-1.17-2l-2.52,1a8.93,8.93,0,0,1,1.53,3.8,1.68,1.68,0,0,1-.34,1.29,5.67,5.67,0,0,0-.84,1.93,1.8,1.8,0,0,1-.49,1,32.34,32.34,0,0,1-2.69,2.68c-.19-.08-.09-.24-.11-.38-.11-1-.37-1.29-1.35-1.29a2.09,2.09,0,0,0-2.19,1.08.67.67,0,0,1-.58.38c.05-1.09-.93-1.42-1.45-2.07-.3-.39-.93-.22-1.39,0a1,1,0,0,1-1.14-.06,1.84,1.84,0,0,0-2,0,7.53,7.53,0,0,1-1.24.43l.7,2.71c.4,0,.77.29,1.23.9a2.79,2.79,0,0,0,.56.56,4.77,4.77,0,0,1,1.68,1.68c.37.71,1.37.68,2.13.82.59.11.89-.3,1.24-.64s1-.91,1.46-1.38a.82.82,0,0,1,0,.95c-.45,1.1-.88,2.23-1.38,3.33-.11.4-.19.8-.26,1.21a16.63,16.63,0,0,1-.68,2.72c-.22.41,0,.88.11,1.33.17.8,0,1.07-.81,1.1a8.8,8.8,0,0,0-2.31.54,8.28,8.28,0,0,1-3,.36h-.13l-.11,2.74a4.56,4.56,0,0,1,.75.06,6.48,6.48,0,0,0,3.3-.53,1.23,1.23,0,0,1,.77-.16,3.16,3.16,0,0,0,1.65-.25.83.83,0,0,1,1.16,1,4.27,4.27,0,0,0-.25,1.2.54.54,0,0,1-.38.53,6.78,6.78,0,0,1-1.47.64l.86,2.57c.3-.12.61-.24.91-.39,1.53-.72,2.38-.39,3.61.86a22.38,22.38,0,0,1,2.25,3.1c.12.19.32.37.14.6a.58.58,0,0,1-.54.12c-1.43-.15-2.86-.21-4.26-.49-1.16-.23-2.32,0-3.45-.33-1.29-.36-2.7-.22-4-.9a5.53,5.53,0,0,0-1.82-.57c-.75-.13-1.5-.17-2.26-.27a1.63,1.63,0,0,0-1.31.49,1.68,1.68,0,0,0-.41.68,1.43,1.43,0,0,0,1.18,1.64h0a28,28,0,0,0,3.4.79.22.22,0,0,1,.12,0c1.59.82,3.34.83,5.06,1.05.6.07,1.2,0,1.8,0a72.1,72.1,0,0,1,7.15,1c2.23.5,4.44,1.14,6.7,1.49a19.92,19.92,0,0,0,2.37.21,5,5,0,0,1,1.75.32,11.89,11.89,0,0,0,3.19.69c1.12.12,2.18.56,3.3.76,1.6.27,3.18.56,4.78.85.8.16,1.61.35,2.42.54a12.89,12.89,0,0,0,2.46.3,3.31,3.31,0,0,1,2.65,1.29,20.47,20.47,0,0,0,1.48,1.54,9.12,9.12,0,0,1,1.33,1.94,1.4,1.4,0,0,1,.17,1.08,13.69,13.69,0,0,1-2.3,5.08,15.48,15.48,0,0,1-2.09,2.06,16.6,16.6,0,0,0-2.08,2.22,4,4,0,0,1-.59.67,17.48,17.48,0,0,0-4,4.82,18,18,0,0,0-2.14,4.22,9.45,9.45,0,0,1-.9,1.82,24.47,24.47,0,0,0-2.45,4.92,16,16,0,0,1-1.46,2.78,39.53,39.53,0,0,1-4.4,6.29,34,34,0,0,0-2.22,3,27.12,27.12,0,0,1-2.31,3.06c-.82.93-1.39,2-2.15,3-1.37,1.74-3,3.22-4.18,5.16a28.63,28.63,0,0,1-1.75,2.58c-.59.77-1.19,1.52-1.76,2.29a7.6,7.6,0,0,0-1,1.61c-.33.84-1.09,1.32-1.53,2.07a18.65,18.65,0,0,1-1.93,3.28c-.38.41-.68.88-1.09,1.29a11.58,11.58,0,0,0-2.11,2.92,60.39,60.39,0,0,0-2.77,6.18q-1,2.41-2,4.8a7.87,7.87,0,0,1-.65,1.07c-.47.79-.68.86-1.29.19a14.62,14.62,0,0,0-4.75-3.16,2.51,2.51,0,0,1-.59-.34,16.08,16.08,0,0,0-4.77-2.23c-.15-.05-.34,0-.44-.13-1-1-2.38-1.24-3.59-1.84-1.53-.78-3.12-1.47-4.7-2.16a21.84,21.84,0,0,0-4-.88,23.31,23.31,0,0,1-3.86-1.49,1.38,1.38,0,0,1-.56-2.11A3.88,3.88,0,0,0,99,238.1a1.26,1.26,0,0,1,.49-.75,20.72,20.72,0,0,0,2.65-3.61c1.13-1.77,1.9-3.74,3.11-5.45l-2-1.45c-1.14,2.1-2.59,4-3.66,6.17a10.12,10.12,0,0,1-1.71,2.24A15.16,15.16,0,0,0,95.43,239.37Z"/><path d="M99,77.69l.37,2.88a6.69,6.69,0,0,1,2.24.24c.8.22,1.58.53,2.37.72,1.53.4,2.57,1.63,4,2.25a10.53,10.53,0,0,1,1.46.84A21.8,21.8,0,0,1,113.82,89c.43.51.82,1.06,1.28,1.54a36.92,36.92,0,0,1,2.32,3,4,4,0,0,0,1.29,1.18,5.09,5.09,0,0,1,1.74,1.56,5.14,5.14,0,0,0,2.66,2.13,1.49,1.49,0,0,1,.43.21l1.41-2.45c-.81-.92-2-.91-2.45-1.94a2.26,2.26,0,0,0-.86-.86,12.12,12.12,0,0,1-2.07-2.21c-.3-.33-.18-.56.27-.59h0a3.06,3.06,0,0,0,1.11-.05,1.8,1.8,0,0,0,1.11-1.29c.12-.56.36-.61.75-.23a1.84,1.84,0,0,1,.47.76,3.32,3.32,0,0,1,.13.46l3-.13a1.12,1.12,0,0,1,.16-1,1,1,0,0,0-.08-1.29,3.59,3.59,0,0,1-.56-1.7,7.17,7.17,0,0,0-.29-1.89,1.39,1.39,0,0,1,0-1,14.15,14.15,0,0,0,.35-2,3.15,3.15,0,0,1,.19-.77c.12-.25.2-.64.57-.57s.26.41.26.64,0,.61,0,.9c-.23,1.42.57,2.65.79,4a2.83,2.83,0,0,0,1.72,1.85c.42.22.79,0,1.13-.28a1.37,1.37,0,0,0,.51-1.62,14.13,14.13,0,0,1-.34-1.76c-.46-1.82,0-3.59.29-5.36a1.09,1.09,0,0,1,1.14-1,.91.91,0,0,1,.34.06,21.59,21.59,0,0,0,2.45.4,21,21,0,0,1,2.4.56A6.23,6.23,0,0,0,143.68,77,4.33,4.33,0,0,1,146,75.64c1.43-.19,2.79-.72,4.25-.87a4.37,4.37,0,0,1,3.38,1.18,5.56,5.56,0,0,0,2.1,1.28,2.47,2.47,0,0,1,.91.65c1.74,1.54,3,3.55,4.91,5,1.1.82,1.82,2,2.84,2.9a.87.87,0,0,1,.15,1.16,4.69,4.69,0,0,1-1.06,1.58c-.58.53-1.14,1.08-1.68,1.67-.28.28-.57.29-.78,0a8.8,8.8,0,0,1-1.4-1.72A5.57,5.57,0,0,0,156,85.27c-1.29-.32-2.58-1-4-.71a1.17,1.17,0,0,1-.57-.05,10.6,10.6,0,0,0-3.69,0,11.24,11.24,0,0,0-2.45.78,2.21,2.21,0,0,0-1.06,2.48c0,.11.08.22.12.33.29,1.67,1.32,1.77,3,1.64.38,0,.57-.34.79-.6.8-1,1.23-.87,2.42-.72a15.94,15.94,0,0,1,3.14,1.14,2.17,2.17,0,0,1,1.25.7.64.64,0,0,0,.48.26,2.28,2.28,0,0,1,1.6,1.13,9.75,9.75,0,0,0,1.6,1.63,1,1,0,0,1,.44,1.28c-.11.41-.12.84-.25,1.23a8,8,0,0,0-.27,4.24,8,8,0,0,1,.07,1.12.84.84,0,0,1-.7.95.89.89,0,0,1-.59-.14,1.63,1.63,0,0,1-.57-.54,26,26,0,0,1-1.62-2,2.65,2.65,0,0,1-.56-1.28,3.4,3.4,0,0,0-1.39-1.94,1.41,1.41,0,0,0-1.59.13,1.11,1.11,0,0,0-.38,1.42c.75,1.59.64,3.39,1.29,5a.74.74,0,0,1-.26.82c-.28.26-.46.6-.71.86-1.1,1.11-2.06,2.32-3.22,3.35a17,17,0,0,0-3.56,4.05,4.14,4.14,0,0,1-2.65,1.93,1.6,1.6,0,0,1-1.65-.4c-.2-.21-.39-.43-.57-.65l-2.8,1.43a8.11,8.11,0,0,1,1.93,3c.28.64,1,1.17,1,2,0,.11.08.21-.05.37-.83-.33-1.2-1.14-1.76-1.75a5,5,0,0,0-1.08-1c-.5-.28-.95-.45-1.43,0-.64.64-.77.9-.25,1.65a11.51,11.51,0,0,0,2.26,2.77,3.18,3.18,0,0,1,.93,1.51c.42,1.08.89,2.14,1.29,3.22a2.09,2.09,0,0,0,.69.87,1.21,1.21,0,0,0,1.46.22,1.37,1.37,0,0,0,.6-1.58,10.87,10.87,0,0,0-.59-1.46,2.48,2.48,0,0,1-.36-1.16h.26a9.82,9.82,0,0,0,1.67,2.06v0l.36.47,2.52-1c-.42-.64-.86-1.26-1.33-1.87a12.77,12.77,0,0,1-2.47-3.86c-.47-1.33-.44-1.4.72-2.22a12.68,12.68,0,0,0,2.39-2c.78-.87,1.42-1.86,2.21-2.73s1.33-1.84,2.54-2.11a.35.35,0,0,0,.21-.23c.14-.58.65-.81,1-1.19a11.23,11.23,0,0,0,2.18-2.58c.21-.43.49-.46.92-.23a5.81,5.81,0,0,0,3.49.19c.76-.32,1.49-.68,2.23-1.06.91-.46,1.93-2.42,1.5-3.4a4.29,4.29,0,0,1,0-3.07c.42-1.25.77-2.53,1.08-3.8a2.28,2.28,0,0,1,1.06-1.58,12.39,12.39,0,0,0,2.16-1.83A3.32,3.32,0,0,0,167.67,89a1.91,1.91,0,0,1,1.89-1.73,2.66,2.66,0,0,0,1.59-.45c.82-.8,1.82-1.46,2-2.72a2.36,2.36,0,0,1,.3-.61c.64-1.25,1.5-2.42,2.07-3.72a.72.72,0,0,1,.37-.42c.64-.22.76-.8.81-1.35a4.19,4.19,0,0,1,.68-1.89,2.6,2.6,0,0,0,.4-2.25c-.29-.86-.18-1.08.71-1.17a1.73,1.73,0,0,0,1.23-.65,24.19,24.19,0,0,0,2.75-4l-2.35-.63c-.45.65-.91,1.29-1.42,1.9a1.69,1.69,0,0,1-1.52.8,1.44,1.44,0,0,0-1.21.74c-1,1.29-1.44,1.54-1.12,3.72a1.8,1.8,0,0,1-1.19-.95,3,3,0,0,0-.86-.87,1.07,1.07,0,0,0-1.49.2.8.8,0,0,0-.13.2,1.88,1.88,0,0,0,.41,2.37c.48.42.91.88,1.44,1.28.75.56.64,1.29-.08,1.86-.28.22-.49.09-.65-.16a12.76,12.76,0,0,1-1.52-2.22,1.59,1.59,0,0,0-1.5-1.16c-.93-.07-1.81-.48-2.75-.57a2.65,2.65,0,0,1-1.29-.59,21,21,0,0,1-1.85-1.5,1.36,1.36,0,0,0-1.81-.28,1.58,1.58,0,0,0-.38,2,1.78,1.78,0,0,0,.61.64c1,.69,1.93,1.41,2.92,2.11a1.31,1.31,0,0,0,.39.23,9,9,0,0,1,3,1.52,7.89,7.89,0,0,1,2.48,2.81.89.89,0,0,1-.13,1.14A12.4,12.4,0,0,1,169,84.14a2,2,0,0,1-2.52-.45,16.05,16.05,0,0,0-3.91-4.34c-1-.9-1.89-1.93-2.84-2.93a7.71,7.71,0,0,0-2.58-2,5.58,5.58,0,0,1-1.43-.88,39.31,39.31,0,0,0-5-3c-.81-.46-1.54-1-2.39-1.46a7.59,7.59,0,0,0-1.34-.57,7.38,7.38,0,0,1-1.86-.77,11,11,0,0,0-3.81-1.29,14.9,14.9,0,0,1-3.22-1,36.65,36.65,0,0,1-3.86-1.76,8.71,8.71,0,0,1-1.83-1.8c-.17-.18-.06-.36.08-.49a.9.9,0,0,1,.74-.23,7.64,7.64,0,0,0,2.34-.15,2.12,2.12,0,0,1,1.61.32,5.4,5.4,0,0,0,2.24.65,16,16,0,0,1,6.42,2.33,26.35,26.35,0,0,1,3.14,2,6.56,6.56,0,0,0,3.33,1.2,8,8,0,0,1,1.29.39c.92.24,1.66.06,1.93-.49s-.16-1.17-1-1.7A5.36,5.36,0,0,0,152,64.64c-1.47-.13-2.48-1.2-3.62-1.93a24.05,24.05,0,0,0-2.18-1.31,25.21,25.21,0,0,0-3-1.34,16.87,16.87,0,0,1-2.54-1,5.25,5.25,0,0,1,1.24-1.35.6.6,0,0,1,.42-.09,5.88,5.88,0,0,1,3.26,1.12,5.52,5.52,0,0,0,1.51,1,2.42,2.42,0,0,0,2.65-.34,1.08,1.08,0,0,0,.07-1.81c-.27-.23-.6-.54-1-.49-1.39.13-2-1.29-3.17-1.56-.3-.08-.22-.5.14-.64.8-.39,1.5-.65,2.33.16a2.46,2.46,0,0,0,2.68.14c.9-.41.8-1.29,0-1.81a3.78,3.78,0,0,1-1-.74c-.21-.26-.22-.46,0-.68a7,7,0,0,1,.6-.51,32.87,32.87,0,0,1,5.9-3.45,13.89,13.89,0,0,0,4.14-3.1c.44-.4.86-.83,1.28-1.25L160,41.86l-1.11,1.08c-1.84,1.81-4.2,2.72-6.33,4a15.57,15.57,0,0,0-2.32,1.53,25.8,25.8,0,0,1-4.91,3.47,34.94,34.94,0,0,0-6.06,4.41,5.06,5.06,0,0,1-2.21,1,8.54,8.54,0,0,0-2.14.7,1.47,1.47,0,0,1-1.29.09,1.2,1.2,0,0,0-1-.06c-.6.28-1.23.51-1.82.85a3.5,3.5,0,0,0-1.05,4.6c.79,1.45.65,1.82-.95,2.07h-.12c-1.55,0-2.86.8-4.26,1.28a1.68,1.68,0,0,0-1.12,1.45c0,.29-.06.6-.09.89-.22,1.86-.47,3.62-2.38,4.7A3.7,3.7,0,0,0,119,76.43a28,28,0,0,1-1,2.88c-.09.32-.2.51-.51.37a14.75,14.75,0,0,1-4.2-2.34c-.65-.59-1.49-1-2.1-1.62-.15-.17-.42-.16-.65-.2a3.76,3.76,0,0,0-2.57.33,2.8,2.8,0,0,0-1.54,1.35c-.51,1.11-.71,1.13-1.93,1-.78-.06-1.43-.47-2.17-.6A11.85,11.85,0,0,0,99,77.69ZM122,81a2.45,2.45,0,0,1-.2-1.74c.15-.59.26-1.17.36-1.75a1.11,1.11,0,0,1,.47-.87c.91-.45,1.61-1.28,2.53-1.67a2.09,2.09,0,0,0,1.32-2.26,4.84,4.84,0,0,1,.47-2.3,1.75,1.75,0,0,1,1.85-1.18,1.52,1.52,0,0,0,1.29-.34.68.68,0,0,1,.41-.17,7.46,7.46,0,0,0,3.34-1,.9.9,0,0,1,.86-.07c.54.3,1.17.35,1.7.6A22.91,22.91,0,0,0,141,69.67a16.12,16.12,0,0,1,4.9,1.94c.16.09.35.18.33.41a.42.42,0,0,1-.4.35A11.35,11.35,0,0,0,143,73.44a4.81,4.81,0,0,0-1.33,1,2.27,2.27,0,0,1-1.88.65,3.4,3.4,0,0,1-1.29-.17A34.87,34.87,0,0,0,133,74a2,2,0,0,0-1,.12,5.1,5.1,0,0,1-1.87.17,5.21,5.21,0,0,0-2.78.59c-.42.25-.87.46-1.29.75a5.12,5.12,0,0,0-2.25,2.74c-.23.91-1,1.61-1.07,2.58a.41.41,0,0,1-.38.37C122.14,81.35,122.08,81.17,122,81Z"/><path class="cls-1" d="M119.85,90.61c-.45,0-.58.26-.27.59a12.12,12.12,0,0,0,2.07,2.21,2.26,2.26,0,0,1,.86.86c.46,1,1.64,1,2.45,1.94a3.44,3.44,0,0,0-.58-2.07,5.19,5.19,0,0,1-.69-2.46,8,8,0,0,0-.23-1.42,3.32,3.32,0,0,0-.13-.46,1.84,1.84,0,0,0-.47-.76c-.39-.38-.63-.33-.75.23A1.8,1.8,0,0,1,121,90.57a3.06,3.06,0,0,1-1.11.05Z"/><path class="cls-1" d="M121.81,79.25A2.45,2.45,0,0,0,122,81c.07.18.14.36.37.36a.41.41,0,0,0,.38-.37c.09-1,.84-1.67,1.07-2.58a5.12,5.12,0,0,1,2.25-2.74c.42-.28.87-.49,1.29-.75a5.21,5.21,0,0,1,2.78-.59,5.1,5.1,0,0,0,1.87-.17,2,2,0,0,1,1-.12,34.87,34.87,0,0,1,5.51.89,3.4,3.4,0,0,0,1.29.17,2.27,2.27,0,0,0,1.88-.65,4.81,4.81,0,0,1,1.33-1,11.35,11.35,0,0,1,2.82-1.07.42.42,0,0,0,.4-.35c0-.23-.17-.32-.33-.41a16.12,16.12,0,0,0-4.9-1.94,22.91,22.91,0,0,1-4.61-1.41c-.54-.25-1.17-.29-1.7-.6a.9.9,0,0,0-.86.07,7.46,7.46,0,0,1-3.34,1,.68.68,0,0,0-.41.17,1.52,1.52,0,0,1-1.29.34A1.75,1.75,0,0,0,127,70.4a4.84,4.84,0,0,0-.47,2.3A2.09,2.09,0,0,1,125.17,75c-.92.39-1.62,1.22-2.53,1.67a1.11,1.11,0,0,0-.47.87C122.07,78.09,122,78.66,121.81,79.25Z"/><path d="M126.47,90.14l-3,.13a8,8,0,0,1,.23,1.42,5.19,5.19,0,0,0,.69,2.46,3.44,3.44,0,0,1,.58,2.07l-1.41,2.45a9.71,9.71,0,0,1,1.14,1.13c.48.49,1.05,1.18,1.59,1.75a1.77,1.77,0,0,1,.45.89c.27,1.52,1.29,2.7,2,4a2.76,2.76,0,0,0,1,.78c1.13.74,1.93,1.83,3,2.66a13.85,13.85,0,0,1,2.88,2.77,3.09,3.09,0,0,0,.64.64,8.2,8.2,0,0,1,.91.79l2.8-1.43a12.38,12.38,0,0,1-1.44-2.17c-.59-.93-1.44-1.62-2-2.54a17.31,17.31,0,0,0-1.68-1.93,2.64,2.64,0,0,0-1.11-.92.65.65,0,0,1-.42-.36c-.71-1.45-1.6-2.78-2.28-4.25a44.1,44.1,0,0,0-2.68-5.66,7.81,7.81,0,0,1-1.44-3.62,1.55,1.55,0,0,0-.26-.74A1.11,1.11,0,0,1,126.47,90.14Z"/><path d="M123.61,151.71c-.16,1,.34,1.6,1.44,1.76a7,7,0,0,0,4-.25,4.55,4.55,0,0,1,1.19-.16l.11-2.74a9.32,9.32,0,0,0-2.35.18,5.12,5.12,0,0,1-2.29-.08,1.58,1.58,0,0,0-2,1A1.86,1.86,0,0,0,123.61,151.71Z"/><path d="M123.74,135.44a6.48,6.48,0,0,0,0,.9,1.28,1.28,0,0,0,1.27,1.3h.2a1.24,1.24,0,0,1,1.29.65,1.08,1.08,0,0,0,1.47.38.62.62,0,0,0,.19-.14,14,14,0,0,0,1.08-1,2,2,0,0,1,1.24-.68l-.7-2.71a8.5,8.5,0,0,1-2.31.28c-.75,0-1.49-.09-2.24-.2S123.79,134.54,123.74,135.44Z"/><path class="cls-1" d="M125.69,83.27a1.39,1.39,0,0,0,0,1,7.17,7.17,0,0,1,.29,1.89,3.59,3.59,0,0,0,.56,1.7,1,1,0,0,1,.08,1.29,1.12,1.12,0,0,0-.16,1,1.11,1.11,0,0,0,.16.32,1.55,1.55,0,0,1,.26.74,7.81,7.81,0,0,0,1.44,3.62,44.1,44.1,0,0,1,2.68,5.66c.68,1.47,1.56,2.8,2.28,4.25a.65.65,0,0,0,.42.36,2.64,2.64,0,0,1,1.11.92,17.31,17.31,0,0,1,1.68,1.93c.59.92,1.44,1.61,2,2.54a12.38,12.38,0,0,0,1.44,2.17c.18.22.37.44.57.65a1.6,1.6,0,0,0,1.65.4,4.14,4.14,0,0,0,2.65-1.93,17,17,0,0,1,3.56-4.05c1.17-1,2.12-2.24,3.22-3.35.25-.26.43-.6.71-.86a.74.74,0,0,0,.26-.82c-.65-1.6-.55-3.4-1.29-5a1.11,1.11,0,0,1,.38-1.42,1.41,1.41,0,0,1,1.59-.13,3.4,3.4,0,0,1,1.39,1.94,2.65,2.65,0,0,0,.56,1.28,26,26,0,0,0,1.62,2,1.63,1.63,0,0,0,.57.54.89.89,0,0,0,.59.14.84.84,0,0,0,.7-.95,8,8,0,0,0-.07-1.12,8,8,0,0,1,.27-4.24c.14-.39.15-.82.25-1.23a1,1,0,0,0-.44-1.28,9.75,9.75,0,0,1-1.6-1.63,2.28,2.28,0,0,0-1.6-1.13.64.64,0,0,1-.48-.26,2.17,2.17,0,0,0-1.25-.7,15.94,15.94,0,0,0-3.14-1.14c-1.19-.15-1.62-.24-2.42.72-.22.26-.41.6-.79.6-1.72.14-2.75,0-3-1.64,0-.11-.07-.22-.12-.33a2.21,2.21,0,0,1,1.06-2.48,11.24,11.24,0,0,1,2.45-.78,10.6,10.6,0,0,1,3.69,0,1.17,1.17,0,0,0,.57.05c1.38-.24,2.67.4,4,.71a5.57,5.57,0,0,1,3.66,3.14,8.8,8.8,0,0,0,1.4,1.72c.21.29.49.28.78,0,.54-.59,1.1-1.14,1.68-1.67a4.69,4.69,0,0,0,1.06-1.58.87.87,0,0,0-.15-1.16c-1-.9-1.73-2.08-2.84-2.9-1.88-1.41-3.17-3.41-4.91-5a2.47,2.47,0,0,0-.91-.65,5.56,5.56,0,0,1-2.1-1.28,4.37,4.37,0,0,0-3.38-1.18c-1.46.15-2.82.68-4.25.87A4.33,4.33,0,0,0,143.68,77a6.23,6.23,0,0,1-6.17,1.29,21,21,0,0,0-2.4-.56,21.59,21.59,0,0,1-2.45-.4.91.91,0,0,0-.34-.06,1.09,1.09,0,0,0-1.14,1c-.29,1.76-.76,3.54-.29,5.36a14.13,14.13,0,0,0,.34,1.76A1.37,1.37,0,0,1,130.7,87c-.35.28-.71.5-1.13.28a2.83,2.83,0,0,1-1.72-1.85c-.22-1.32-1-2.55-.79-4,0-.29,0-.66,0-.9s.12-.57-.26-.64-.45.32-.57.57a3.15,3.15,0,0,0-.19.77A14.15,14.15,0,0,1,125.69,83.27Z"/><path class="cls-1" d="M132.43,61.44c-.15.14-.25.32-.08.49a8.71,8.71,0,0,0,1.83,1.8A36.65,36.65,0,0,0,138,65.49a14.9,14.9,0,0,0,3.22,1,11,11,0,0,1,3.81,1.29,7.38,7.38,0,0,0,1.86.77,7.59,7.59,0,0,1,1.34.57c.85.42,1.59,1,2.39,1.46a39.31,39.31,0,0,1,5,3,5.58,5.58,0,0,0,1.43.88,7.71,7.71,0,0,1,2.58,2l2.1-1.52a1.78,1.78,0,0,1-.61-.64,1.58,1.58,0,0,1,.38-2,1.36,1.36,0,0,1,1.81.28,21,21,0,0,0,1.85,1.5,2.65,2.65,0,0,0,1.29.59c.95.08,1.82.49,2.75.57a1.59,1.59,0,0,1,1.5,1.16,12.76,12.76,0,0,0,1.52,2.22c.16.25.37.38.65.16.72-.57.83-1.3.08-1.86-.53-.4-1-.86-1.44-1.28a1.88,1.88,0,0,1-.41-2.37.8.8,0,0,1,.13-.2,1.07,1.07,0,0,1,1.49-.2,3,3,0,0,1,.86.87,1.8,1.8,0,0,0,1.19.95c-.32-2.17.11-2.43,1.12-3.72a1.44,1.44,0,0,1,1.21-.74,1.69,1.69,0,0,0,1.52-.8c.5-.61,1-1.25,1.42-1.9a1.77,1.77,0,0,0,.2-1.72,13.69,13.69,0,0,0-.81-1.85,2.56,2.56,0,0,1-.17-1.76,1.07,1.07,0,0,1,.87-.92,1.08,1.08,0,0,1,1.21.4,2.1,2.1,0,0,1,.43.78c.05.27.14.59.48.49a.64.64,0,0,0,.38-.64,2,2,0,0,0-.54-1.34c-.81-.95-1.61-1.9-2.46-2.78a1.64,1.64,0,0,1-.32-1.69c.14-.55.62-.68,1.13-.78a1.4,1.4,0,0,1,1.34.35,11.07,11.07,0,0,1,1.32,1.21c.55.66.82.57,1.19-.22a18.16,18.16,0,0,1,.65-1.93c.72-1.23,1.52-2.43,2.35-3.58a3.83,3.83,0,0,0,1-2.25,5.67,5.67,0,0,1,1.55-3.77,4.47,4.47,0,0,0,.74-1.13A7.17,7.17,0,0,1,192.11,42a2.81,2.81,0,0,0,.88-1.89,1.31,1.31,0,0,1,.35-.82,9.49,9.49,0,0,0,1.17-2.18,1.9,1.9,0,0,1,.38-.68,8.54,8.54,0,0,0,1.42-2A3.07,3.07,0,0,1,197.75,33a1.82,1.82,0,0,0,1.08-1.49,10.53,10.53,0,0,0,0-1.63c-.46-.12-.66.15-.92.27a1.84,1.84,0,0,1-2.26-.48c-.43-.62-.3-1.31.4-2a4.3,4.3,0,0,0,.83-.91,2.71,2.71,0,0,1,.51-.69L195.48,26c-.78.84-1.59.77-2.07-.22a9.06,9.06,0,0,0-1.17-1.51.6.6,0,0,0-.16-.17.59.59,0,0,0-.82.17c-.35.37-.59.87-1,1.05a15.47,15.47,0,0,0-3.22,2.23c-1.66,1.28-3.58,2.22-5,3.77a2.35,2.35,0,0,1-.74.5c-1.71.74-3.22,1.92-4.94,2.7-.85.39-.76.63-.21,1.29s.6,1.34,0,1.76a1.68,1.68,0,0,1-1.81.32c-.46-.23-1-.27-1.4-.7l0,0a.48.48,0,0,0-.68,0,4.25,4.25,0,0,0-1.17,1.17c.47.24.93.38,1.19.79a2.74,2.74,0,0,0,1.08.9,3.19,3.19,0,0,1,1.48,1.18c.36.64.2,1.59-.29,1.82a1.8,1.8,0,0,1-2.57-.46,5.28,5.28,0,0,1-.45-.51,3.68,3.68,0,0,0-2.9-1.46,7.75,7.75,0,0,0-2.51.16,7,7,0,0,0-3,1.66c-.45.4-.87.83-1.3,1.25s-.84.85-1.28,1.25a13.89,13.89,0,0,1-4.14,3.1,32.87,32.87,0,0,0-5.9,3.45,7,7,0,0,0-.6.51c-.22.22-.21.42,0,.68a3.78,3.78,0,0,0,1,.74c.8.51.9,1.4,0,1.81a2.46,2.46,0,0,1-2.68-.14c-.83-.81-1.53-.55-2.33-.16-.36.14-.44.56-.14.64,1.18.27,1.79,1.69,3.17,1.56.39,0,.71.26,1,.49a1.08,1.08,0,0,1-.07,1.81,2.42,2.42,0,0,1-2.65.34l-.91,1.65a24.05,24.05,0,0,1,2.18,1.31c1.14.74,2.15,1.81,3.62,1.93a5.36,5.36,0,0,1,2.47,1.09c.82.54,1.26,1.16,1,1.7s-1,.74-1.93.49a8,8,0,0,0-1.29-.39,6.56,6.56,0,0,1-3.33-1.2,26.35,26.35,0,0,0-3.14-2A16,16,0,0,0,139.35,62a5.4,5.4,0,0,1-2.24-.65,2.12,2.12,0,0,0-1.61-.32,7.64,7.64,0,0,1-2.34.15A.9.9,0,0,0,132.43,61.44Z"/><path class="cls-1" d="M141.93,57.73a5.25,5.25,0,0,0-1.24,1.35,16.87,16.87,0,0,0,2.54,1,25.21,25.21,0,0,1,3,1.34l.91-1.65a5.52,5.52,0,0,1-1.51-1,5.88,5.88,0,0,0-3.26-1.12A.6.6,0,0,0,141.93,57.73Z"/><path class="cls-1" d="M161.82,74.9l-2.1,1.52c.95,1,1.82,2,2.84,2.93a16.05,16.05,0,0,1,3.91,4.34,2,2,0,0,0,2.52.45,12.4,12.4,0,0,0,1.46-1.42.89.89,0,0,0,.13-1.14,7.89,7.89,0,0,0-2.48-2.81,9,9,0,0,0-3-1.52,1.31,1.31,0,0,1-.39-.23C163.75,76.31,162.8,75.6,161.82,74.9Z"/><path d="M161.94,40l-2,1.9,1.76,1.81c.43-.42.85-.85,1.3-1.25a7,7,0,0,1,3-1.66,7.75,7.75,0,0,1,2.51-.16,3.68,3.68,0,0,1,2.9,1.46,5.28,5.28,0,0,0,.45.51,1.8,1.8,0,0,0,2.57.46c.49-.23.65-1.18.29-1.82A3.19,3.19,0,0,0,173.33,40a2.74,2.74,0,0,1-1.08-.9c-.25-.41-.71-.55-1.19-.79a4.25,4.25,0,0,1,1.17-1.17.48.48,0,0,1,.68,0l0,0c.38.43.93.47,1.4.7a1.68,1.68,0,0,0,1.81-.32c.6-.42.55-1.09,0-1.76s-.64-.9.21-1.29c1.71-.78,3.22-2,4.94-2.7a2.35,2.35,0,0,0,.74-.5c1.45-1.55,3.37-2.49,5-3.77a15.47,15.47,0,0,1,3.22-2.23c.41-.18.65-.68,1-1.05a.59.59,0,0,1,.82-.17.6.6,0,0,1,.16.17,9.06,9.06,0,0,1,1.17,1.51c.48,1,1.29,1.06,2.07.22a4.37,4.37,0,0,0,.77-1.73.85.85,0,0,0-.36-.9c-.38-.32-.24-.6-.11-1A6.49,6.49,0,0,1,198.9,19a78.15,78.15,0,0,0,6.85-4.55,7.42,7.42,0,0,1,2.33-1.14l1.49-.5c.22.2,0,.42-.17.53-1.23.8-1.93,2.13-3,3.09-1.61,1.46-2.35,3.57-3.86,5.07a.91.91,0,0,0-.26.49c-.22,1.62-1.47,2.24-2.74,2.81a7.38,7.38,0,0,0-2.16,1.25,2.71,2.71,0,0,0-.51.69,4.3,4.3,0,0,1-.83.91c-.7.69-.83,1.39-.4,2a1.84,1.84,0,0,0,2.26.48c.26-.13.46-.39.92-.27a10.53,10.53,0,0,1,0,1.63A1.82,1.82,0,0,1,197.75,33a3.07,3.07,0,0,0-1.45,1.35,8.54,8.54,0,0,1-1.42,2,1.9,1.9,0,0,0-.38.68,9.49,9.49,0,0,1-1.17,2.18,1.31,1.31,0,0,0-.35.82,2.81,2.81,0,0,1-.88,1.89,7.17,7.17,0,0,0-1.44,2.28,4.47,4.47,0,0,1-.74,1.13,5.67,5.67,0,0,0-1.55,3.77,3.83,3.83,0,0,1-1,2.25c-.83,1.16-1.63,2.35-2.35,3.58a18.16,18.16,0,0,0-.65,1.93c-.37.79-.64.88-1.19.22A11.07,11.07,0,0,0,181.89,56a1.4,1.4,0,0,0-1.34-.35c-.51.09-1,.23-1.13.78a1.64,1.64,0,0,0,.32,1.69c.85.88,1.65,1.84,2.46,2.78a2,2,0,0,1,.54,1.34.64.64,0,0,1-.38.64c-.35.09-.43-.22-.48-.49a2.1,2.1,0,0,0-.43-.78,1.08,1.08,0,0,0-1.21-.4,1.07,1.07,0,0,0-.87.92,2.56,2.56,0,0,0,.17,1.76,13.69,13.69,0,0,1,.81,1.85,1.77,1.77,0,0,1-.2,1.72l2.35.63a26,26,0,0,0,1.25-2.61,3.18,3.18,0,0,1,.92-1.41,2.26,2.26,0,0,0,.84-1.44c.15-.81.26-1.63.34-2.46a3.27,3.27,0,0,1,.35-1.4,12.07,12.07,0,0,0,1-2.28,4.6,4.6,0,0,1,.71-1.5,29.3,29.3,0,0,0,1.82-2.58c.59-1.11,1.33-2.22,1.19-3.59a1.53,1.53,0,0,1,.29-.95,23.24,23.24,0,0,0,1.93-3.17c.47-1.17,1.35-2.06,1.87-3.22a38.46,38.46,0,0,1,3.29-5.8,4.05,4.05,0,0,1,.8-.79c1-.84,2.21-1.45,2.48-2.91a5.2,5.2,0,0,0,.21-1.45,1.36,1.36,0,0,1,.21-1c.59-.92.85-2,1.79-2.75.24-.18.22-.55.27-.85a11.38,11.38,0,0,1,3.22-5.8c1.65-1.79,3.69-3.22,4.64-5.61.07-.16.27-.26.38-.42.5-.84,1.45-1.29,1.86-2.26a12.45,12.45,0,0,1,1.05-2.12c.4-.62.15-1.07-.54-1.42a1.94,1.94,0,0,0-2.31.12,1.43,1.43,0,0,1-.51.23,17.52,17.52,0,0,0-5.4,2.49,41.51,41.51,0,0,1-5.08,2.63c-1.67.81-3.22,1.79-4.82,2.67a4.47,4.47,0,0,0-1.58,1.43,3.59,3.59,0,0,1-1.6,1.39,5.52,5.52,0,0,0-.95.6c-1.46,1.06-2.78,2.29-4.25,3.34-1.72,1.22-3.47,2.38-5.24,3.54A30,30,0,0,0,178.27,30,21.4,21.4,0,0,1,173,33.4c-1.32.7-2.54,1.56-3.86,2.24-.85.43-1.35,1.29-2.27,1.66s-1.66.86-2.57,1.17A6.49,6.49,0,0,0,161.94,40Z"/></svg>